# xmcd
#
# Track frame offsets:
#	180
#	15655
#	29125
#	47790
#	66535
#	78942
#	93110
#	111355
#	125817
#	138715
#
# Disc length: 2048 seconds
#
# Revision: 0
# Processed by: cddbd v1.5.2PL0 Copyright (c) Steve Scherf et al.
# Submitted via: EasyCDDAExtractor 16.0.6.1
#
DISCID=9207fe0a
DTITLE=Ezechiel 37 - Istwa
DYEAR=1900
DGENRE=Gospel
TTITLE0=Down By the river side
TTITLE1=Promis
TTITLE2=Partout ou tu iras
TTITLE3=La Menm
TTITLE4=Toujours une raison
TTITLE5=Pwan isi poté là
TTITLE6=Il me fait reposer
TTITLE7=Amen
TTITLE8=Marie
TTITLE9=Oh when the saints
EXTD=
EXTT0=
EXTT1=
EXTT2=
EXTT3=
EXTT4=
EXTT5=
EXTT6=
EXTT7=
EXTT8=
EXTT9=
PLAYORDER=
